<svg xmlns="http://www.w3.org/2000/svg" xmlns:svg="http://www.w3.org/2000/svg" xmlns:xlink="http://www.w3.org/1999/xlink" id="svg1" width="507.188" height="509.219" version="1.1"><defs id="defs3"><linearGradient id="linearGradient4809"><stop style="stop-color:#d5d8db;stop-opacity:1" id="stop4810" offset="0"/><stop style="stop-color:#6d8ec2;stop-opacity:1" id="stop4811" offset="1"/></linearGradient><linearGradient id="linearGradient4179"><stop style="stop-color:#bec8c6;stop-opacity:1" id="stop4180" offset="0"/><stop style="stop-color:#bbcac9;stop-opacity:1" id="stop4182" offset=".595"/><stop style="stop-color:#879797;stop-opacity:1" id="stop4181" offset="1"/></linearGradient><linearGradient id="linearGradient4038"><stop style="stop-color:#4a8a61;stop-opacity:1" id="stop4039" offset="0"/><stop style="stop-color:#557c7d;stop-opacity:1" id="stop4040" offset="1"/></linearGradient><linearGradient id="linearGradient2162"><stop style="stop-color:#549c6d;stop-opacity:1" id="stop2163" offset="0"/><stop style="stop-color:#679697;stop-opacity:1" id="stop2164" offset="1"/></linearGradient><linearGradient id="linearGradient2158"><stop style="stop-color:#dbdbdb;stop-opacity:1" id="stop2159" offset="0"/><stop style="stop-color:#a1aec2;stop-opacity:1" id="stop2160" offset="1"/></linearGradient><radialGradient id="radialGradient2165" cx="205.286" cy="152.502" r="486.225" fx="198.525" fy="148.593" gradientTransform="matrix(0.99940285,0,0,1.0005975,-127.46875,-47)" gradientUnits="userSpaceOnUse" xlink:href="#linearGradient2158"/><linearGradient id="linearGradient4043" x1="119.489" x2="462.459" y1="387.755" y2="302.284" gradientTransform="scale(1.0666754,0.9374923)" gradientUnits="userSpaceOnUse" xlink:href="#linearGradient4038"/><radialGradient id="radialGradient4184" cx="-6.24" cy="138.193" r="63.028" fx="-5.472" fy="137.485" gradientTransform="scale(1.0322663,0.96874227)" gradientUnits="userSpaceOnUse" spreadMethod="pad" xlink:href="#linearGradient4809"/><radialGradient id="radialGradient3021" cx="-6.24" cy="138.193" r="63.028" fx="-5.472" fy="137.485" gradientTransform="scale(1.0322663,0.96874227)" gradientUnits="userSpaceOnUse" spreadMethod="pad" xlink:href="#linearGradient4809"/></defs><metadata id="metadata4"/><rect style="fill:#000;fill-opacity:1;fill-rule:evenodd;stroke:#000;stroke-width:2.13874531pt;stroke-linecap:butt;stroke-linejoin:miter;stroke-opacity:1" id="rect2793" width="497.327" height="497.924" x="8.527" y="9.973" rx="10" ry="10"/><rect style="fill:url(#radialGradient2165);fill-opacity:.75;fill-rule:evenodd;stroke:#c7ffc7;stroke-width:2.67499995;stroke-linecap:butt;stroke-linejoin:miter;stroke-miterlimit:4;stroke-opacity:1" id="rect1532" width="497.327" height="497.924" x="1.329" y="1.335" rx="10" ry="10"/><g id="g4871" transform="matrix(1,0,0,0.72153,-123.39704,-123.99862)"><rect style="fill:url(#linearGradient4043);fill-opacity:.75;fill-rule:evenodd;stroke:#000;stroke-width:1.50865927pt;stroke-linecap:butt;stroke-linejoin:miter;stroke-opacity:1" id="rect2794" width="374.557" height="328.966" x="144.305" y="199.034" rx="10" ry="13.859"/><path style="fill:none;stroke:#fafafa;stroke-width:20;stroke-linecap:round;stroke-linejoin:miter;stroke-miterlimit:4;stroke-opacity:1" id="path4175" d="m 153.53968,361.37008 c 70.53877,201.53936 110.35828,210.2256 177.45839,6.10757 66.67288,-202.81841 104.2451,-205.61109 176.22345,0.24698"/><path style="fill:none;stroke:#000;stroke-width:7.375;stroke-linecap:butt;stroke-linejoin:miter;stroke-miterlimit:4;stroke-opacity:1" id="path4176" d="m 145.99255,362.80964 c 369.96869,0 369.3724,1.43957 369.3724,1.43957"/></g><g id="g4852" transform="matrix(-1.360555,0.352222,-0.352222,-1.360555,196.67455,583.0333)"><path style="fill:url(#radialGradient3021);fill-opacity:.75;fill-rule:evenodd;stroke:none" id="path4853" d="m 63.340942,147.59439 a 46.785923,43.906792 0 1 1 -93.571846,0 46.785923,43.906792 0 1 1 93.571846,0 z" transform="matrix(1.045432,0,0,1.113986,-125.3003,-37.14836)"/><path style="fill:none;stroke:#000;stroke-width:11.85730171;stroke-linecap:butt;stroke-linejoin:miter;stroke-miterlimit:4;stroke-opacity:1;stroke-dasharray:11.857302,23.714604;stroke-dashoffset:0" id="path4854" d="m 63.340942,147.59439 a 46.785923,43.906792 0 1 1 -93.571846,0 46.785923,43.906792 0 1 1 93.571846,0 z" transform="matrix(1.162718,0.507361,-0.579194,1.268918,-39.94742,-66.78193)"/><path style="fill:#000;fill-opacity:1;fill-rule:evenodd;stroke:none" id="path4855" d="m -108.49675,123.27211 c 36.885113,-10.80173 39.904052,-12.46015 39.904052,-12.46015 l -33.461822,23.25931 -6.44223,-10.79916 z"/></g><g id="g4864" transform="matrix(0.687211,0,0,0.854478,499.66235,-75.81607)"><rect style="fill:#000;fill-opacity:.75;fill-rule:evenodd;stroke:none" id="rect4856" width="110.648" height="545.609" x="-136.402" y="109.761"/><rect style="fill:#00bc1a;fill-opacity:1;fill-rule:evenodd;stroke:none" id="rect4857" width="39.393" height="442.412" x="-128.615" y="205.447"/><rect style="fill:#00bc1a;fill-opacity:1;fill-rule:evenodd;stroke:none" id="rect4858" width="37.357" height="525.882" x="-74.665" y="120.643"/><rect style="fill:#000;fill-opacity:.17543862;fill-rule:evenodd;stroke:none" id="rect4860" width="95.884" height="12.215" x="-128.358" y="221.733"/><rect style="fill:#000;fill-opacity:.17543862;fill-rule:evenodd;stroke:none" id="rect4862" width="95.884" height="12.215" x="-129.376" y="563.757"/><rect style="fill:#000;fill-opacity:.17543862;fill-rule:evenodd;stroke:none" id="rect4863" width="95.884" height="12.215" x="-127.34" y="386.638"/></g><g id="g4875" transform="matrix(-1.360555,0.352222,-0.352222,-1.360555,3.44525,587.1877)"><path style="fill:url(#radialGradient4184);fill-opacity:.75;fill-rule:evenodd;stroke:none" id="path4876" d="m 63.340942,147.59439 c 0,24.24905 -20.946771,43.90679 -46.785923,43.90679 -25.8391514,0 -46.785923,-19.65774 -46.785923,-43.90679 0,-24.24905 20.9467716,-43.90679 46.785923,-43.90679 25.839152,0 46.785923,19.65774 46.785923,43.90679 z" transform="matrix(1.045432,0,0,1.113986,-125.3003,-37.14836)"/><path style="fill:none;stroke:#000;stroke-width:11.85730171;stroke-linecap:butt;stroke-linejoin:miter;stroke-miterlimit:4;stroke-opacity:1;stroke-dasharray:11.857302,23.714604;stroke-dashoffset:0" id="path4877" d="m 63.340942,147.59439 c 0,24.24905 -20.946771,43.90679 -46.785923,43.90679 -25.8391514,0 -46.785923,-19.65774 -46.785923,-43.90679 0,-24.24905 20.9467716,-43.90679 46.785923,-43.90679 25.839152,0 46.785923,19.65774 46.785923,43.90679 z" transform="matrix(1.162718,0.507361,-0.579194,1.268918,-39.94742,-66.78193)"/><path style="fill:#000;fill-opacity:1;fill-rule:evenodd;stroke:none" id="path4878" d="m -108.49675,123.27211 c 36.885113,-10.80173 39.904052,-12.46015 39.904052,-12.46015 l -33.461822,23.25931 -6.44223,-10.79916 z"/></g></svg>